<svg xmlns="http://www.w3.org/2000/svg" width="80" height="80" viewBox="0 0 80 80"><g transform="translate(-178 -339)"><g transform="translate(-86 -210)"><g transform="translate(264 549)" fill="rgba(249,252,255,0.41)" stroke="#3a4759" stroke-width="2"><circle cx="40" cy="40" r="40" stroke="none"/><circle cx="40" cy="40" r="39" fill="none"/></g><g transform="translate(274.508 567.026)"><path d="M452.576,354.9a.792.792,0,0,0-1.1.209l-1.824,2.681a5.562,5.562,0,0,0-.961,2.926l-.187,5.031a.794.794,0,1,0,1.587.059l.187-5.031a3.968,3.968,0,0,1,.686-2.088l1.82-2.687a.8.8,0,0,0-.208-1.1Z" transform="translate(-396.022 -321.989)" fill="#3a4759"/><path d="M57.991,70.56l-5.231-7.45V49.27a3.377,3.377,0,0,0-3.508-3.221H9.949a3.377,3.377,0,0,0-3.5,3.221v6.117a.871.871,0,0,0,1.734,0V49.27a1.708,1.708,0,0,1,1.774-1.628h39.3a1.708,1.708,0,0,1,1.774,1.628V73.326a1.513,1.513,0,0,1-.147.646l-1.764-1.756V50.331A.977.977,0,0,0,48.1,49.4H37.368a.8.8,0,0,0,0,1.592H47.381v19.5l-1.571-1.564a.811.811,0,0,0,.671-.852.844.844,0,0,0-.828-.726H44.182a2.866,2.866,0,0,0-3.324,0H38.375a.8.8,0,0,0,0,1.592h1.492a2.282,2.282,0,0,0,.307,1.524l.69,1.144H18.334l.69-1.144a2.282,2.282,0,0,0,.308-1.521h3.643a.8.8,0,0,0,0-1.592H18.35a2.847,2.847,0,0,0-3.63.261l-1.9,1.9V50.988H33.9a.8.8,0,0,0,0-1.592H12.088a.977.977,0,0,0-1.01.936v20.9l-2.755,2.74a1.513,1.513,0,0,1-.147-.646V58.57a.871.871,0,0,0-1.734,0v4.54l-5.23,7.45a6.476,6.476,0,0,0,.109,7.692L4.66,82.745a3.746,3.746,0,0,1,.749,2.088l.2,5.031a.84.84,0,0,0,.9.764.827.827,0,0,0,.834-.823l-.2-5.031a5.252,5.252,0,0,0-1.05-2.926L2.754,77.354a4.994,4.994,0,0,1-.085-5.931l3.776-5.374v7.277A3.041,3.041,0,0,0,7.1,75.2l-.469.467a.748.748,0,0,0-.211.784A.843.843,0,0,0,7.068,77a.917.917,0,0,0,.838-.254l8.089-8.054a1,1,0,0,1,1.351-.032.815.815,0,0,1,.166,1.037L12.648,77.76a1.529,1.529,0,0,0,.185,1.841,3.707,3.707,0,0,1,.737,3.8,5.953,5.953,0,0,0-.39,1.97l-.094,3.69a.778.778,0,0,0,.409.714.937.937,0,0,0,.88.019.785.785,0,0,0,.444-.7l.094-3.69a4.476,4.476,0,0,1,.293-1.483,5.206,5.206,0,0,0-1.037-5.337.048.048,0,0,1-.005-.058l1.2-1.984H43.846l1.2,1.984a.048.048,0,0,1-.005.058A5.206,5.206,0,0,0,44,83.925a4.477,4.477,0,0,1,.293,1.483l.094,3.69a.785.785,0,0,0,.444.7.937.937,0,0,0,.88-.019.778.778,0,0,0,.409-.714l-.094-3.69a5.952,5.952,0,0,0-.39-1.97,3.707,3.707,0,0,1,.737-3.8,1.529,1.529,0,0,0,.185-1.841l-4.864-8.067a.815.815,0,0,1,.166-1.037,1,1,0,0,1,1.351.032L51.3,76.742a.917.917,0,0,0,.838.254.843.843,0,0,0,.648-.548.748.748,0,0,0-.211-.784l-.469-.467a3.046,3.046,0,0,0,.655-1.869V66.049l3.773,5.374a4.962,4.962,0,0,1,.38,5.183.767.767,0,0,0,.416,1.057.9.9,0,0,0,1.155-.381A6.435,6.435,0,0,0,57.991,70.56ZM16.317,74.954,17.374,73.2H41.833l1.057,1.754Z" transform="translate(0.001 -46.049)" fill="#3a4759"/><path d="M77.546,178.73v-1.15a.794.794,0,1,0-1.588,0v1.15a.794.794,0,1,0,1.588,0Z" transform="translate(-67.916 -162.906)" fill="#3a4759"/><path d="M129.048,212.643a.8.8,0,0,0,0,1.592h3.488a.8.8,0,0,0,0-1.592Z" transform="translate(-113.291 -194.959)" fill="#3a4759"/><path d="M354.407,213.439a.8.8,0,0,0,.794.8h3.488a.8.8,0,0,0,0-1.592H355.2a.8.8,0,0,0-.793.792Z" transform="translate(-313.078 -194.959)" fill="#3a4759"/><path d="M137.9,106.811v-3.936a.8.8,0,0,0-.794-.8h-1.238V99.831a.8.8,0,0,0-.794-.8H130.9a.8.8,0,0,0-.794.8v6.98a.8.8,0,0,0,.794.8h6.2a.8.8,0,0,0,.8-.8Zm-6.2-6.184h2.582v1.452H131.7Zm4.614,5.388H131.7v-2.344h4.614Z" transform="translate(-114.853 -93.41)" fill="#3a4759"/><path d="M227.542,182.052a.795.795,0,0,0,1.012-1.218l-5.077-5.091a.8.8,0,0,0-1.215,1.015l-1.422,2.878-1.247,1.251a2.123,2.123,0,0,0,0,2.993l.847.849a2.1,2.1,0,0,0,2.531.343l1.811.752a.8.8,0,0,0,.608-1.471l-1.125-.467.407-.408Zm-3.181-.2-1.9-1.908.982-1.989,2.9,2.912Zm-2.8,1.747-.847-.849a.526.526,0,0,1,0-.741l.778-.78,1.586,1.59-.771.773-.007.007a.522.522,0,0,1-.737,0Z" transform="translate(-193.185 -161.767)" fill="#3a4759"/><path d="M300.431,108.455h-5.867a.8.8,0,0,0,0,1.592h5.867a.8.8,0,0,0,0-1.592Z" transform="translate(-259.348 -101.83)" fill="#3a4759"/><path d="M303.607,138.478h-9.043a.8.8,0,0,0,0,1.592h9.043a.8.8,0,0,0,0-1.592Z" transform="translate(-259.107 -128.666)" fill="#3a4759"/></g></g></g></svg>