<svg xmlns="http://www.w3.org/2000/svg" width="80" height="80" viewBox="0 0 80 80"><g transform="translate(-94 -261)"><g transform="translate(94.431 261.34)"><g transform="translate(-0.431 -0.34)" fill="rgba(249,252,255,0.41)" stroke="#3a4759" stroke-width="2"><circle cx="40" cy="40" r="40" stroke="none"/><circle cx="40" cy="40" r="39" fill="none"/></g><g transform="translate(19.691 13.653)"><path d="M82.412,48.482a.766.766,0,1,0,.766.766A.766.766,0,0,0,82.412,48.482Zm0-4.593a.766.766,0,1,0,.766.765.766.766,0,0,0-.766-.765ZM97.45,36.8l-.386-.13V16.433a14.533,14.533,0,0,0-1.1-5.575c.509-1.379,1.012-2.44,1.541-3.559.424-.9.863-1.823,1.3-2.914A1.787,1.787,0,0,0,97.6,2,59.04,59.04,0,0,0,82.389,0h-.076a59.232,59.232,0,0,0-6.23.338.766.766,0,1,0,.164,1.522A57.471,57.471,0,0,1,97.21,3.474a.236.236,0,0,1,.172.343c-.417,1.046-.846,1.951-1.26,2.826-.477,1.007-.968,2.044-1.457,3.321A43.722,43.722,0,0,0,82.562,8.2a42.47,42.47,0,0,0-12.509,1.882L67.437,3.81a.239.239,0,0,1,.17-.345c1.69-.45,3.423-.827,5.149-1.12A.766.766,0,1,0,72.5.835c-1.772.3-3.55.688-5.286,1.15A1.786,1.786,0,0,0,66.025,4.4l2.769,6.613a14.558,14.558,0,0,0-1.035,5.419v20.24l-.386.13a6.885,6.885,0,0,0-4.693,6.53v8.16a.765.765,0,0,0,1.531,0v-8.16a5.355,5.355,0,0,1,3.65-5.079L76.2,35.446l5.479,5.479a1.175,1.175,0,0,0,1.66,0L88.771,35.5l8.191,2.756a5.355,5.355,0,0,1,3.65,5.079v8.16a.765.765,0,1,0,1.531,0v-8.16A6.885,6.885,0,0,0,97.45,36.8ZM77.1,32.611a1.275,1.275,0,0,1-.869,1.209L69.29,36.157v-14a3.027,3.027,0,0,0,1.6.4,11.727,11.727,0,0,0,6.21,9.312ZM69.29,19.518a1.512,1.512,0,0,1,1.547-1.508v3.015a1.511,1.511,0,0,1-1.547-1.507ZM82.514,39.589l-4.853-4.853a2.806,2.806,0,0,0,.974-2.2,11.4,11.4,0,0,0,3.736.641,11.606,11.606,0,0,0,3.817-.629,2.807,2.807,0,0,0,1.087,2.282Zm13.02-3.432L88.588,33.82a1.274,1.274,0,0,1-.869-1.209v-.72a11.587,11.587,0,0,0,3.685-3,.766.766,0,1,0-1.189-.965A10.046,10.046,0,0,1,86.669,30.7a.777.777,0,0,0-.072.033,8.973,8.973,0,0,1-4.221.91,10.121,10.121,0,0,1-10.008-10.16V18.019a31.591,31.591,0,0,0,8.926-1.3,31.638,31.638,0,0,0,6.871-2.956,8.053,8.053,0,0,0,4.29,4.017V21.6a10.014,10.014,0,0,1-.591,3.4.766.766,0,0,0,1.441.518,11.5,11.5,0,0,0,.641-2.965,3.1,3.1,0,0,0,1.587-.4v14ZM93.986,21.025V18.01a1.508,1.508,0,1,1,0,3.015Zm1.547-4.144a3.02,3.02,0,0,0-1.508-.4h-.68a6.526,6.526,0,0,1-3.855-3.5,1.378,1.378,0,0,0-1.953-.624,30.115,30.115,0,0,1-6.677,2.894,30.076,30.076,0,0,1-9.239,1.226H70.8a3.019,3.019,0,0,0-1.508.4v-.449a13.039,13.039,0,0,1,.9-4.8,41.094,41.094,0,0,1,12.36-1.907,42.191,42.191,0,0,1,12.036,1.813,13.015,13.015,0,0,1,.943,4.891Zm-8.192,1.744a.766.766,0,0,0-.766.765v1.744a.766.766,0,0,0,1.531,0V19.391a.766.766,0,0,0-.764-.765Zm-9.86,0a.766.766,0,0,0-.766.765v1.744a.766.766,0,0,0,1.531,0V19.391a.766.766,0,0,0-.764-.765ZM82.412,2.6a.766.766,0,0,0-.765.765V4.13h-.766a.766.766,0,1,0,0,1.531h.766V6.43a.766.766,0,0,0,1.531,0V5.665h.765a.765.765,0,1,0,0-1.531h-.765V3.368a.766.766,0,0,0-.766-.768Zm1.08,23.27a1.857,1.857,0,0,1-2.162,0,.766.766,0,1,0-.885,1.249,3.436,3.436,0,0,0,1.967.629h.121a3.392,3.392,0,0,0,1.846-.628.766.766,0,1,0-.887-1.248Z" transform="translate(-62.68)" fill="#3a4759"/></g></g></g></svg>