<svg xmlns="http://www.w3.org/2000/svg" width="80" height="80" viewBox="0 0 80 80"><g transform="translate(-246 -184)"><g transform="translate(246 184.187)"><g transform="translate(0 -0.187)" fill="rgba(249,252,255,0.41)" stroke="#3a4759" stroke-width="2"><circle cx="40" cy="40" r="40" stroke="none"/><circle cx="40" cy="40" r="39" fill="none"/></g><g transform="translate(16.303 23.005)"><path d="M16.373,54.785a.721.721,0,0,0-.845.57,9.234,9.234,0,1,0,1.329-3.271.72.72,0,1,0,1.206.788,7.734,7.734,0,1,1-1.12,2.757.72.72,0,0,0-.57-.845ZM45.5,39.75a12.339,12.339,0,0,0-17.742,0l-2.9,2.97a.4.4,0,0,1-.561,0l-2.9-2.97a12.339,12.339,0,0,0-17.742,0,13.053,13.053,0,0,0,0,18.125L22.814,77.5a2.483,2.483,0,0,0,3.532,0L39.352,64.175a.72.72,0,0,0-1.031-1.006L25.315,76.491a1.028,1.028,0,0,1-1.47,0L4.689,56.869a11.6,11.6,0,0,1,0-16.112,10.9,10.9,0,0,1,15.68,0l2.9,2.97a1.843,1.843,0,0,0,2.623,0l2.9-2.97a10.9,10.9,0,0,1,15.68,0,11.6,11.6,0,0,1,0,16.112l-3.8,3.9A.72.72,0,1,0,41.7,61.77l3.8-3.895A13.053,13.053,0,0,0,45.5,39.75ZM25.444,50.778H23.716a1.3,1.3,0,0,0-1.3,1.3v2.881H19.538a1.3,1.3,0,0,0-1.3,1.3v1.729a1.3,1.3,0,0,0,1.3,1.3h2.881v2.881a1.3,1.3,0,0,0,1.3,1.3h1.729a1.3,1.3,0,0,0,1.3-1.3V59.278h2.881a1.3,1.3,0,0,0,1.3-1.3V56.252a1.3,1.3,0,0,0-1.3-1.3H26.741V52.074a1.3,1.3,0,0,0-1.3-1.3ZM29.478,56.4v1.441H26.309a1.01,1.01,0,0,0-1.009,1v3.169H23.86V58.846a1.01,1.01,0,0,0-1.008-1.008h-3.17V56.4h3.169a1.01,1.01,0,0,0,1.008-1.008V52.218H25.3v3.169A1.01,1.01,0,0,0,26.309,56.4Z" transform="translate(0.004 -35.987)" fill="#3a4759"/></g></g></g></svg>