<svg xmlns="http://www.w3.org/2000/svg" width="81" height="81" viewBox="0 0 81 81"><g transform="translate(-82.5 -378.5)"><g transform="translate(47 238)"><g transform="translate(36 141)"><g transform="translate(0 0)"><circle cx="40" cy="40" r="40" fill="none" stroke="#3a4759" stroke-miterlimit="10" stroke-width="1"/><circle cx="39.1" cy="39.1" r="39.1" transform="translate(0.9 0.9)" fill="none" stroke="#3a4759" stroke-miterlimit="10" stroke-width="1"/><g transform="translate(13.126 14.193)"><g transform="translate(10.491 9.985)"><path d="M12.919-4.1C3.936-4.1-3.3,2.887-3.3,11.371a15.342,15.342,0,0,0,2.121,7.735,1.006,1.006,0,0,0,1.123.374.857.857,0,0,0,.374-1.123h0A13.511,13.511,0,0,1,5.683-.607C12.67-4.35,21.528-2.229,25.52,4.509,29.513,11,27.142,19.48,20.155,23.348a14.719,14.719,0,0,1-17.716-2.5.833.833,0,0,0-1.248,0,.7.7,0,0,0,0,1.123,16.412,16.412,0,0,0,11.728,4.866A15.888,15.888,0,0,0,29.263,11.5,15.794,15.794,0,0,0,13.169-4.1Z" transform="translate(3.3 4.1)" fill="#3a4759"/></g><g transform="translate(16.2 15.446)"><path d="M6.48-5A10.286,10.286,0,0,0-4,4.981,10.206,10.206,0,0,0,6.48,14.962,10.286,10.286,0,0,0,16.96,4.981,10.286,10.286,0,0,0,6.48-5Zm0,18.34A8.526,8.526,0,0,1-2.253,4.981,8.526,8.526,0,0,1,6.48-3.378a8.526,8.526,0,0,1,8.733,8.359A8.526,8.526,0,0,1,6.48,13.34Z" transform="translate(4 5)" fill="#3a4759"/></g><g transform="translate(37.696 7.727)"><path d="M-2.657-3.8A3.65,3.65,0,0,0-6.4-.182,3.729,3.729,0,0,0-2.657,3.436,3.65,3.65,0,0,0,1.086-.182,3.65,3.65,0,0,0-2.657-3.8Zm0,5.614a2.079,2.079,0,0,1-2.121-2,2,2,0,0,1,2.121-2,2.079,2.079,0,0,1,2.121,2h0A2.164,2.164,0,0,1-2.657,1.814Z" transform="translate(6.4 3.8)" fill="#3a4759"/></g><path d="M39.421-2.5H9.852C3.24-2.5-2,2.49-2,8.853V37.174c0,6.238,5.365,11.353,11.852,11.353H39.421A11.59,11.59,0,0,0,51.274,37.174h0V8.853C51.4,2.49,46.034-2.5,39.421-2.5ZM49.652,37.174a9.909,9.909,0,0,1-10.106,9.731H9.852A9.909,9.909,0,0,1-.253,37.174h0V8.853A9.909,9.909,0,0,1,9.852-.878H39.421A9.909,9.909,0,0,1,49.527,8.853h0V37.174Z" transform="translate(2 2.5)" fill="#3a4759"/><g transform="translate(3.985 3.86)"><path d="M34.679-3.1H5.734A8.073,8.073,0,0,0-2.5,4.76h0v27.7a7.994,7.994,0,0,0,8.234,7.86H34.679a8.073,8.073,0,0,0,8.234-7.86V4.635A8.135,8.135,0,0,0,34.679-3.1Zm6.488,35.433a6.394,6.394,0,0,1-6.488,6.238H5.734A6.314,6.314,0,0,1-.753,32.333V4.635A6.394,6.394,0,0,1,5.734-1.6H34.679a6.314,6.314,0,0,1,6.488,6.238Z" transform="translate(2.5 3.1)" fill="#3a4759"/></g></g></g></g></g></g></svg>