<svg xmlns="http://www.w3.org/2000/svg" width="80" height="80" viewBox="0 0 80 80"><g transform="translate(-183 -255)"><g transform="translate(183 255)"><g fill="rgba(249,252,255,0.41)" stroke="#3a4759" stroke-width="2"><circle cx="40" cy="40" r="40" stroke="none"/><circle cx="40" cy="40" r="39" fill="none"/></g><g transform="translate(17.184 19.129)"><path d="M41.817,34.136,31.558,23.877a.837.837,0,0,0-1.184,0L26.5,27.748c-1.968-1.691-4.086-3.668-6.3-5.886s-4.194-4.335-5.884-6.305l3.869-3.869a.837.837,0,0,0,0-1.184L7.926.245a.837.837,0,0,0-1.184,0L.468,6.52a.839.839,0,0,0-.127.163c-.149.25-.821,1.668.6,5.026,1.8,4.263,6.129,9.834,12.854,16.558,6.75,6.75,12.329,11.082,16.582,12.877a9.39,9.39,0,0,0,3.58.875,2.765,2.765,0,0,0,1.433-.3.839.839,0,0,0,.152-.12l6.274-6.274a.837.837,0,0,0,0-1.189Zm-7.336,6.152c-.645.165-5.54.758-19.5-13.2C1.087,13.191,1.618,8.245,1.779,7.576L7.334,2.021,16.409,11.1l-3.823,3.823a.837.837,0,0,0-.049,1.131c1.827,2.17,4.007,4.524,6.479,7s4.826,4.653,6.994,6.48a.837.837,0,0,0,1.131-.048l3.825-3.825,9.075,9.075Z" transform="translate(-0.052 0)" fill="#3a4759"/><g transform="translate(21.13 1.632)"><path d="M275.939,25.615H271.05V20.726a.837.837,0,0,0-.837-.837h-6.126a.837.837,0,0,0-.837.837v4.889h-4.889a.837.837,0,0,0-.837.837v6.126a.837.837,0,0,0,.837.837h4.889V38.3a.837.837,0,0,0,.837.837h6.126a.837.837,0,0,0,.837-.837V33.415h4.889a.837.837,0,0,0,.837-.837V26.452a.837.837,0,0,0-.837-.837Zm-.837,6.126h-4.889a.837.837,0,0,0-.837.837v4.889h-4.452V32.578a.837.837,0,0,0-.837-.837H259.2V27.289h4.889a.837.837,0,0,0,.837-.837V21.563h4.452v4.889a.837.837,0,0,0,.837.837H275.1Z" transform="translate(-257.524 -19.889)" fill="#3a4759"/></g><g transform="translate(10.96 8.287)"><path d="M135.448,101.638l-.418-.418a.837.837,0,0,0-1.184,1.184l.418.418a.837.837,0,1,0,1.184-1.184Z" transform="translate(-133.601 -100.975)" fill="#3a4759"/></g><g transform="translate(6.44 3.767)"><path d="M82.547,48.736l-2.6-2.6a.837.837,0,0,0-1.184,1.184l2.6,2.6a.837.837,0,1,0,1.184-1.184Z" transform="translate(-78.523 -45.896)" fill="#3a4759"/></g></g></g></g></svg>