<svg xmlns="http://www.w3.org/2000/svg" width="57.027" height="55" viewBox="0 0 57.027 55">
  <g id="Group_52" data-name="Group 52" transform="translate(0 -9.1)">
    <g id="Group_29" data-name="Group 29" transform="translate(0 9.1)">
      <g id="Group_28" data-name="Group 28" transform="translate(0)">
        <path id="Path_435" data-name="Path 435" d="M54.842,19.731c-2.188-3.011-6.02-5.729-10.79-7.652a42.219,42.219,0,0,0-31.036-.046C8.238,13.941,4.4,16.647,2.2,19.651A9.783,9.783,0,0,0,.442,28.644,4.713,4.713,0,0,0,4.96,31.9l7.123.007h.007A4.758,4.758,0,0,0,15.751,30.2a4.681,4.681,0,0,0,1.02-3.848c-.007-.04-.016-.08-.026-.12l-.375-1.457A29.061,29.061,0,0,1,28.519,21.9a29.834,29.834,0,0,1,12.144,2.93l-.381,1.449c-.011.041-.02.082-.028.124a4.681,4.681,0,0,0,1.009,3.851,4.758,4.758,0,0,0,3.665,1.717l7.123.007h.007a4.713,4.713,0,0,0,4.519-3.244A9.794,9.794,0,0,0,54.842,19.731Zm-1.5,7.959a1.337,1.337,0,0,1-1.281.886h0l-7.123-.007a1.364,1.364,0,0,1-1.052-.489,1.275,1.275,0,0,1-.287-1.008l.709-2.7a1.7,1.7,0,0,0-.787-1.9A32.943,32.943,0,0,0,28.536,18.5H28.4a32.3,32.3,0,0,0-14.879,3.919,1.7,1.7,0,0,0-.787,1.892l.695,2.7a1.275,1.275,0,0,1-.29,1.009,1.364,1.364,0,0,1-1.052.486h0L4.964,28.5a1.337,1.337,0,0,1-1.28-.89,6.437,6.437,0,0,1,1.264-5.947C8.83,16.349,18.721,12.5,28.483,12.5h.053c9.772.014,19.677,3.9,23.553,9.228A6.447,6.447,0,0,1,53.338,27.69Z" transform="translate(0 -9.1)" fill="#3a4759"/>
      </g>
    </g>
    <g id="Group_31" data-name="Group 31" transform="translate(5.951 29.125)">
      <g id="Group_30" data-name="Group 30">
        <path id="Path_436" data-name="Path 436" d="M92.1,199.016l-5.312-5.577a1.7,1.7,0,0,0-1.232-.528H82.121v-2.319a1.7,1.7,0,0,0-3.4,0v2.319H73.268v-2.319a1.7,1.7,0,0,0-3.4,0v2.319H66.432a1.7,1.7,0,0,0-1.232.528l-5.312,5.577a23.314,23.314,0,0,0-6.458,16.146v7a1.7,1.7,0,0,0,1.7,1.7H96.854a1.7,1.7,0,0,0,1.7-1.7v-7A23.312,23.312,0,0,0,92.1,199.016ZM56.833,220.461v-5.3a19.924,19.924,0,0,1,5.52-13.8l4.809-5.049H84.824l4.809,5.049a19.925,19.925,0,0,1,5.519,13.8v5.3Z" transform="translate(-53.43 -188.89)" fill="#3a4759"/>
      </g>
    </g>
    <g id="Group_33" data-name="Group 33" transform="translate(19.608 40.068)">
      <g id="Group_32" data-name="Group 32">
        <path id="Path_437" data-name="Path 437" d="M184.952,287.135a8.906,8.906,0,1,0,8.906,8.906A8.916,8.916,0,0,0,184.952,287.135Zm0,14.408a5.5,5.5,0,1,1,5.5-5.5A5.509,5.509,0,0,1,184.952,301.543Z" transform="translate(-176.046 -287.135)" fill="#3a4759"/>
      </g>
    </g>
  </g>
</svg>
