<svg xmlns="http://www.w3.org/2000/svg" width="47.73" height="40.386" viewBox="0 0 47.73 40.386">
  <g id="quote" transform="translate(47.73 76.933) rotate(180)">
    <g id="Group_39" data-name="Group 39" transform="translate(0 36.547)">
      <path id="Path_439" data-name="Path 439" d="M16.522,36.547H5.507a5.312,5.312,0,0,0-3.9,1.606A5.312,5.312,0,0,0,0,42.054V53.069a5.309,5.309,0,0,0,1.606,3.9,5.313,5.313,0,0,0,3.9,1.606h6.425a2.742,2.742,0,0,1,2.754,2.754v.917a7.075,7.075,0,0,1-2.151,5.192,7.076,7.076,0,0,1-5.192,2.151H5.507a1.766,1.766,0,0,0-1.291.545,1.764,1.764,0,0,0-.545,1.291V75.1a1.766,1.766,0,0,0,.545,1.291,1.767,1.767,0,0,0,1.291.545H7.343a14.311,14.311,0,0,0,5.694-1.162,14.8,14.8,0,0,0,4.69-3.141,14.8,14.8,0,0,0,3.141-4.69,14.307,14.307,0,0,0,1.162-5.694V42.054a5.484,5.484,0,0,0-5.507-5.507Z" transform="translate(0 -36.547)" fill="#3a4759"/>
      <path id="Path_440" data-name="Path 440" d="M276.239,38.153a5.311,5.311,0,0,0-3.9-1.606H261.324a5.483,5.483,0,0,0-5.507,5.507V53.069a5.484,5.484,0,0,0,5.507,5.507h6.425A2.742,2.742,0,0,1,270.5,61.33v.917a7.345,7.345,0,0,1-7.343,7.342h-1.836a1.862,1.862,0,0,0-1.836,1.836V75.1a1.862,1.862,0,0,0,1.836,1.836h1.836a14.312,14.312,0,0,0,5.694-1.162,14.548,14.548,0,0,0,7.83-7.831,14.307,14.307,0,0,0,1.162-5.694V42.054A5.309,5.309,0,0,0,276.239,38.153Z" transform="translate(-230.116 -36.547)" fill="#3a4759"/>
    </g>
  </g>
</svg>
