<svg xmlns="http://www.w3.org/2000/svg" width="80" height="80" viewBox="0 0 80 80"><g transform="translate(-247 -502)"><g transform="translate(247.131 502)"><g transform="translate(-0.131)" fill="rgba(249,252,255,0.41)" stroke="#3a4759" stroke-width="2"><circle cx="40" cy="40" r="40" stroke="none"/><circle cx="40" cy="40" r="39" fill="none"/></g><g transform="translate(17.856 13.177)"><path d="M46.353,14.613A.791.791,0,1,0,45.9,13.1a8.314,8.314,0,0,0-3.693,2.237,9.184,9.184,0,0,0-2.118,7.531.794.794,0,0,0,1.566-.259,7.563,7.563,0,0,1,1.709-6.188,6.757,6.757,0,0,1,2.989-1.808Zm17.629-4.031a2.656,2.656,0,0,0,0,3.739l2.06,2.053a3.284,3.284,0,0,0,4.628,0l5.806-5.786a2.649,2.649,0,1,0-3.789-3.7L68.355,11.2l-.622-.619a2.681,2.681,0,0,0-3.752,0Zm4.374,2.376a1.159,1.159,0,0,0,.824-.34L73.808,8a1.108,1.108,0,0,1,1.506-.073,1.07,1.07,0,0,1,.038,1.538l-5.806,5.786a1.693,1.693,0,0,1-2.383,0L65.1,13.2a1.064,1.064,0,0,1,1.507-1.5l.92.917a1.16,1.16,0,0,0,.824.34ZM70.978,0a.791.791,0,0,0-.1,1.579,10.169,10.169,0,1,1-3.447.369.791.791,0,1,0-.437-1.52,11.8,11.8,0,0,0-8.406,9.61,18.847,18.847,0,0,1-2.058,1.319,3.49,3.49,0,0,1-3.108.166,10.372,10.372,0,0,1-2.18-1.3A7.837,7.837,0,0,0,47.066,8.4a10.991,10.991,0,0,0-6.715,1.966c-2.8,1.88-4.62,5.3-4.989,9.394a15.31,15.31,0,0,0,.388,5.265,17.622,17.622,0,0,0,1.335,3.263,17.9,17.9,0,0,1,1.182,2.792,17.563,17.563,0,0,1,.41,5.748c-.027.732-.056,1.488-.051,2.252.024,4.36.053,9.786,3.542,12.921,1.391,1.25,3.608,2.559,5.419,1.71,1.337-.627,1.546-2.026,1.836-3.964a35.81,35.81,0,0,1,.712-3.729c.086-.339.173-.709.265-1.1.126-.538.317-1.306-.463-1.489-.764-.179-.951.567-1.083,1.129-.09.384-.175.748-.258,1.072a37.144,37.144,0,0,0-.743,3.885c-.259,1.733-.4,2.51-.941,2.765-.882.413-2.555-.44-3.681-1.453-2.969-2.667-3-7.707-3.018-11.756,0-.729.024-1.469.05-2.184a19.037,19.037,0,0,0-.473-6.251A19.368,19.368,0,0,0,38.51,27.6a16.2,16.2,0,0,1-1.225-2.968,13.744,13.744,0,0,1-.343-4.724c.326-3.614,1.891-6.611,4.295-8.224a9.379,9.379,0,0,1,5.713-1.7,6.391,6.391,0,0,1,3.367,1.527A11.769,11.769,0,0,0,52.832,13a5.07,5.07,0,0,0,4.409-.22,11.393,11.393,0,0,0,1.229-.731,11.77,11.77,0,0,0,14.3,11.108A12.683,12.683,0,0,1,71.361,27.4c-1.864,3.365-1.826,6.5-1.785,9.815.007.6.015,1.227.012,1.864-.023,4.048-.052,9.085-3.019,11.752-1.126,1.013-2.8,1.866-3.681,1.453-.545-.255-.683-1.032-.941-2.765a37.159,37.159,0,0,0-.743-3.884c-.667-2.623-1.753-7.687-4.6-9.174a3.61,3.61,0,0,0-3.067-.128c-1.48.56-2.619,1.888-3.483,4.06a.793.793,0,0,0,1.476.583c.69-1.736,1.532-2.771,2.572-3.164a2.055,2.055,0,0,1,1.765.05c2.149,1.125,3.225,5.923,3.795,8.162a35.837,35.837,0,0,1,.712,3.729c.29,1.937.5,3.337,1.836,3.964,1.835.86,4.039-.47,5.419-1.71,3.487-3.134,3.518-8.559,3.543-12.922,0-.647,0-1.278-.012-1.888-.04-3.237-.075-6.032,1.587-9.031a14.5,14.5,0,0,0,1.678-5.51A11.716,11.716,0,0,0,70.978,0ZM41.335,24.948a.792.792,0,0,0-.73.85,8.553,8.553,0,0,0,.217,1.359.793.793,0,1,0,1.542-.374,6.978,6.978,0,0,1-.177-1.108.793.793,0,0,0-.853-.727Z" transform="translate(-35.286 0.002)" fill="#3a4759"/></g></g></g></svg>